<?xml version="1.0" standalone="no"?>
<svg version="1.1" preserveAspectRatio="xMidYMid meet" viewBox="0 0 24 24" class="ng-element" data-id="1d9de6aecb7d4f4c999f678e0f023b4c" style="fill: rgb(217, 7, 0); width: 20px; height: 20px; filter: none;" xmlns="http://www.w3.org/2000/svg"><g><defs> </defs> <rect display="none" fill="#FFA400" width="24" height="24" style="fill: rgb(217, 7, 0);"/> <rect id="_x3C_Slice_x3E__126_" display="none" fill="none" width="24" height="24" style="fill: rgb(217, 7, 0);"/> <path fill-rule="evenodd" clip-rule="evenodd" d="M15,0v6h6L15,0z M12,19c1.657,0,3-1.343,3-3c0-0.439-0.1-0.854-0.27-1.23 L10.77,18.73C11.146,18.9,11.561,19,12,19z M14,0H3v24h18V7h-7V0z M17,16c0,2.762-2.238,5-5,5s-5-2.238-5-5c0-2.761,2.238-5,5-5 S17,13.239,17,16z M9,16c0,0.44,0.1,0.854,0.27,1.23l3.961-3.96C12.854,13.1,12.439,13,12,13C10.343,13,9,14.343,9,16z" style="fill: rgb(217, 7, 0);"/> </g></svg>