<svg id="Layer_1" data-name="Layer 1" xmlns="http://www.w3.org/2000/svg" viewBox="0 0 280.8 128"><defs><style>.cls-1{fill:#fff;}</style></defs><title>JCLT-LogoHorWhite</title><path class="cls-1" d="M114.52,41.39c0-6.91,0-8.19-.09-9.64s-.45-2.28-2-2.6A9.42,9.42,0,0,0,110.7,29c-.5,0-.78-.1-.78-.41s.32-.42,1-.42c2.41,0,5.27.14,6.46.14s4-.14,5.73-.14c.64,0,1,.1,1,.42s-.27.41-.82.41a6.86,6.86,0,0,0-1.32.13c-1.23.23-1.59,1-1.68,2.6s-.1,2.73-.1,9.64v8.43c0,2,.14,4.14.14,6.41a24.44,24.44,0,0,1-1.09,8.06c-1,2.78-3.37,5.92-7.74,8.6a24.78,24.78,0,0,1-2.27,1.19,2.08,2.08,0,0,1-.91.27.36.36,0,0,1-.37-.37c0-.22.23-.41,1-.81a9.7,9.7,0,0,0,2.19-1.74c3.46-3.5,3.41-8.05,3.41-17Z"/><path class="cls-1" d="M130.68,53.66c-.17,0-.24.07-.31.28l-1.84,4.88A6.61,6.61,0,0,0,128,60.9c0,.61.3,1.06,1.36,1.06h.51c.41,0,.52.06.52.27s-.21.34-.58.34c-1.1,0-2.57-.1-3.62-.1-.38,0-2.26.1-4,.1-.45,0-.65-.07-.65-.34s.14-.27.41-.27.78,0,1.06-.07c1.57-.21,2.22-1.37,2.9-3.07l8.57-21.44c.41-1,.61-1.37.95-1.37s.52.31.86,1.09c.81,1.88,6.28,15.81,8.46,21,1.3,3.07,2.29,3.55,3,3.72a7.66,7.66,0,0,0,1.43.14c.27,0,.45,0,.45.27s-.31.34-1.58.34-3.72,0-6.45-.07c-.61,0-1,0-1-.27s.13-.27.47-.31a.55.55,0,0,0,.31-.78l-2.73-7.24a.33.33,0,0,0-.34-.24Zm7-1.7c.17,0,.21-.11.17-.21l-3.07-8.43c0-.14-.07-.31-.17-.31s-.17.17-.21.31l-3.14,8.4c0,.13,0,.24.14.24Z"/><path class="cls-1" d="M151.16,59.33a12.85,12.85,0,0,1-4.23-10.07,12.89,12.89,0,0,1,4-9.36c2.46-2.25,5.7-3.61,10.79-3.61a33,33,0,0,1,4.95.34c1.29.17,2.39.47,3.41.58.38,0,.51.2.51.41s-.1.68-.17,1.87,0,3-.1,3.69c0,.51-.1.78-.41.78s-.34-.27-.34-.74a4.85,4.85,0,0,0-1.33-3.14c-1.13-1.2-3.79-2.12-6.93-2.12-3,0-4.92.75-6.42,2.12-2.49,2.28-3.14,5.52-3.14,8.84,0,8.12,6.18,12.15,10.75,12.15,3,0,4.89-.34,6.25-1.91a5.77,5.77,0,0,0,1.16-2.25c.1-.55.17-.69.45-.69s.3.24.3.52a32.49,32.49,0,0,1-.75,4.53,1.23,1.23,0,0,1-.89,1,19.9,19.9,0,0,1-6.14.78c-4.68,0-8.6-1-11.71-3.72"/><path class="cls-1" d="M179.56,48.17h.17c1.16-1.27,6.14-6.35,7.14-7.51s1.7-2,1.7-2.56c0-.38-.13-.62-.48-.69s-.44-.14-.44-.34.17-.3.55-.3c.71,0,2.59.1,3.52.1s2.93-.1,4-.1c.34,0,.58.06.58.3s-.17.31-.51.31a6.88,6.88,0,0,0-2,.37,10.89,10.89,0,0,0-3.69,2.57c-1.06,1-6.21,6.14-7.37,7.37,1.22,1.6,7.91,8.8,9.25,10.07a16,16,0,0,0,4.88,3.68A5.94,5.94,0,0,0,199,62c.25,0,.45.06.45.27s-.17.34-.82.34h-3a23.37,23.37,0,0,1-2.36-.07c-1.84-.17-2.76-.92-4.23-2.22s-8.22-9.21-8.94-10.2l-.38-.51h-.17v3.1c0,3.14,0,5.84.1,7.31.07,1,.38,1.7,1.23,1.84a14.1,14.1,0,0,0,1.67.14c.28,0,.45.1.45.27s-.27.34-.65.34c-1.91,0-4.06-.1-4.92-.1s-2.93.1-4.29.1c-.45,0-.69-.1-.69-.34s.14-.27.55-.27a5.49,5.49,0,0,0,1.23-.14c.68-.14.85-.89,1-1.88.18-1.43.18-4.13.18-7.27v-6c0-5.19,0-6.14-.07-7.23s-.34-1.71-1.47-2a6.86,6.86,0,0,0-1.33-.1c-.37,0-.58-.07-.58-.31s.24-.3.75-.3c1.81,0,4,.1,4.78.1s3-.1,4.13-.1c.48,0,.71.06.71.3s-.2.31-.47.31a4.9,4.9,0,0,0-1,.1c-.92.17-1.19.75-1.26,2s-.07,2-.07,7.23Z"/><path class="cls-1" d="M199.91,62.16c-.55-.24-.65-.41-.65-1.16,0-1.88.13-3.93.17-4.47s.13-.89.41-.89.34.31.34.58a7.2,7.2,0,0,0,.31,1.74,4.7,4.7,0,0,0,4.88,3.45c3.07,0,4.57-2.08,4.57-3.89s-.51-3.24-3.34-5.47L205,50.83c-3.76-2.94-5.05-5.33-5.05-8.09,0-3.76,3.14-6.45,7.88-6.45a16.49,16.49,0,0,1,4.54.58c.31.06.48.17.48.4,0,.45-.14,1.44-.14,4.1,0,.75-.11,1-.38,1s-.34-.21-.34-.62a4.15,4.15,0,0,0-.88-2.25,4.33,4.33,0,0,0-3.72-1.67c-2.53,0-4.07,1.46-4.07,3.51,0,1.57.79,2.77,3.62,4.92l1,.72c4.13,3.1,5.59,5.46,5.59,8.7a6.88,6.88,0,0,1-3.2,5.94,9.9,9.9,0,0,1-5.43,1.4,11.76,11.76,0,0,1-5-.89"/><path class="cls-1" d="M216.23,49.67c0-5.84,3.85-13.38,14.09-13.38,8.5,0,13.79,5,13.79,12.76s-5.46,14-14.13,14c-9.8,0-13.75-7.34-13.75-13.38m23.1.65c0-7.65-4.4-12.4-10-12.4-3.93,0-8.4,2.19-8.4,10.69,0,7.1,3.93,12.73,10.48,12.73,2.39,0,7.92-1.16,7.92-11"/><path class="cls-1" d="M250.59,57.93c.08,2.66.52,3.55,1.2,3.79a5.57,5.57,0,0,0,1.78.24c.37,0,.58.06.58.27s-.31.34-.79.34c-2.22,0-3.58-.1-4.23-.1-.31,0-1.91.1-3.69.1-.44,0-.75,0-.75-.34s.21-.27.55-.27a6.43,6.43,0,0,0,1.54-.17c.88-.28,1-1.27,1.05-4.24l.31-20.21c0-.68.1-1.16.45-1.16s.68.45,1.26,1.06c.41.44,5.59,6,10.58,11,2.32,2.32,6.93,7.24,7.51,7.78h.17l-.34-15.32c0-2.08-.34-2.74-1.16-3.08a5.69,5.69,0,0,0-1.81-.2c-.41,0-.55-.1-.55-.31s.38-.3.89-.3c1.78,0,3.41.1,4.13.1.38,0,1.68-.1,3.35-.1.44,0,.78,0,.78.3s-.2.31-.62.31a3.82,3.82,0,0,0-1,.1c-.95.27-1.22,1-1.26,2.9l-.38,21.54c0,.75-.13,1.06-.44,1.06s-.79-.37-1.16-.75c-2.15-2-6.52-6.52-10.07-10-3.72-3.68-7.51-7.95-8.13-8.6h-.1Z"/><path class="cls-1" d="M155.09,73.89a14.5,14.5,0,0,0-4.44,10.39,14.19,14.19,0,0,0,4.71,11.19h0c3.24,2.81,7.36,4.13,13,4.13a22,22,0,0,0,6.81-.87,1.49,1.49,0,0,0,1.07-1.19,36.74,36.74,0,0,0,.83-5c0-.62-.3-.71-.48-.71-.45,0-.53.32-.63.87a6.07,6.07,0,0,1-1.25,2.41c-1.5,1.73-3.53,2.06-6.76,2.06-4.71,0-11.69-4.21-11.69-13.23,0-4.43,1.08-7.48,3.41-9.62,1.72-1.56,3.93-2.29,7-2.29,3.2,0,6.22.92,7.51,2.28a5.22,5.22,0,0,1,1.43,3.36c0,.34,0,1,.52,1s.56-.58.59-1l.06-1.92.06-2.14.18-2.07c0-.16-.07-.53-.69-.59l-1.83-.31-1.92-.33a38,38,0,0,0-5.47-.38c-5.17,0-9,1.28-12,4"/><path class="cls-1" d="M178.76,87.72c0,5.66,3.77,11.74,12.06,11.74,7.29,0,12.39-5,12.39-12.27,0-6.91-4.64-11.21-12.1-11.21-8.49,0-12.35,6.09-12.35,11.74m4.36-.91c0-7.94,4.47-9.12,7.13-9.12a7.78,7.78,0,0,1,6.05,2.83,11.9,11.9,0,0,1,2.48,7.77c0,8.49-4.7,9.41-6.72,9.41-5.26,0-8.94-4.48-8.94-10.89"/><path class="cls-1" d="M223.64,76.44l-1.73,0-3-.09c-.19,0-.61,0-.61.41s.3.39.49.43.31.11.31.45-.59,1.12-1.33,2l-.12.15-3.81,4-2.27,2.38v-1.1l.06-6.26c.06-1.06.3-1.43,1-1.56l.8-.09c.48,0,.56-.25.56-.4,0-.41-.52-.41-.77-.41l-3.58.09-1.31,0-2.83-.06c-.27,0-.79,0-.79.41s.47.4.64.4l1.12.09c.94.2,1.11.64,1.17,1.56l.06,6.26v5.21c0,2.71,0,5-.15,6.28-.13.93-.27,1.41-.75,1.5l-1,.12c-.15,0-.62,0-.62.38s.25.44.74.44l2.34,0,1.38,0,1.34,0,2.93.06c.63,0,.7-.31.7-.44s-.14-.38-.53-.38l-1.43-.12c-.58-.09-.88-.56-.94-1.46,0,0-.09-6.32-.09-6.32V87.78h0l.21.38c.61.85,6.45,7.7,7.77,8.87s2.11,1.81,3.75,2l2.05.06h2.58c.43,0,.85,0,.85-.44,0-.09,0-.38-.53-.38a4.91,4.91,0,0,1-1.78-.43,13,13,0,0,1-4-3l-.23-.22c-1.12-1.07-6.72-7.09-7.92-8.61l6.3-6.3a9.39,9.39,0,0,1,3.15-2.19,5.79,5.79,0,0,1,1.66-.32c.16,0,.59,0,.59-.4s-.22-.41-.65-.41Z"/><path class="cls-1" d="M241.07,76.24l-.17,0-1.26.18-7.38,0-1.43,0h-.42l-2.41,0c-.27,0-.79,0-.79.41s.47.4.65.4l1.12.09c.93.2,1.11.64,1.16,1.56l.06,6.26v5.21c0,2.71,0,5-.15,6.28-.13.93-.27,1.41-.74,1.5,0,0-1,.12-1,.12-.15,0-.61,0-.61.38s.24.44.73.44l2-.06,1.69,0,3.07.09.9,0,4.22.07c1.12,0,1.5,0,1.74-.88a23.55,23.55,0,0,0,.39-3.32c0-.3,0-.67-.38-.67s-.42.31-.47.56c-.2,1.19-.54,1.76-1.25,2.08a7.49,7.49,0,0,1-2.72.34c-3,0-3.35-.44-3.41-2.34V88l0-.15,4.2.08c1.16.13,1.43.63,1.54,1l.09.76,0,.29a.37.37,0,0,0,.41.39c.41,0,.41-.46.41-.7l.12-2,.23-2.17a.33.33,0,0,0-.35-.37l-.53.38A1.89,1.89,0,0,1,239,86l-4.72.06c-.05,0-.07-.18-.07-.18V78.41c0-.16,0-.16.07-.16.55,0,3.69.06,4.18.12,1.45.17,1.69.51,1.87,1l.17,1c0,.14,0,.55.4.55.23,0,.38-.15.44-.44l.11-1.38,0-.58s.19-1.64.19-1.64l0-.3c0-.34-.17-.41-.31-.41Z"/><path class="cls-1" d="M252.78,76.44l-2.17,0-1.19,0-2.87-.06c-.27,0-.79,0-.79.41s.47.4.65.4l1.12.09c.93.2,1.11.64,1.16,1.56l.06,6.26v5.21c0,2.71,0,5-.15,6.28-.12.93-.28,1.41-.74,1.5l-1,.12c-.15,0-.61,0-.61.38s.24.44.73.44l2.41-.06,1.2,0,.95,0,3.4.07c.49,0,.73-.15.73-.44,0-.09,0-.38-.5-.38l-1.43-.12c-.74-.09-.93-.6-1-1.49-.15-1.24-.15-3.6-.15-6.32v-.42c0-.08,0-.09.1-.09l2.57.06a.48.48,0,0,1,.43.15l1.4,2,1.52,2.13c1.73,2.38,2.85,3.72,4.1,4.39a6.17,6.17,0,0,0,3.24.58h2.8c.22,0,.71,0,.71-.44,0-.09,0-.38-.5-.38l-.8-.08a5.89,5.89,0,0,1-3.24-2c-1.5-1.58-3.21-3.73-5.37-6.45l-1-1.21c2.69-2.22,3.86-4.21,3.86-6.64a5.27,5.27,0,0,0-2.08-4.18,9.61,9.61,0,0,0-5.52-1.29Zm-.09,11.42c-.11,0-.17-.09-.17-.4v-9c0-.21,0-.24.17-.27l1.53-.12c1.62,0,4.38,1.11,4.38,5.28,0,2.68-1.06,3.86-1.69,4.32a2.82,2.82,0,0,1-2,.47,7.67,7.67,0,0,1-2.21-.28"/><path class="cls-1" d="M123.33,72.27a5,5,0,0,0-1.49,3.44v.05a6.6,6.6,0,0,0,1.44,4.13c-1.89,1-4.74,3.64-4.74,7,0,2.47,1.75,6.64,8.32,6.64a9.48,9.48,0,0,0,7-2.64c2.47,1.88,3.55,2.23,6.93,2.23H143c.53,0,1,0,1-.41s-.36-.4-.55-.4a8.67,8.67,0,0,1-3.08-1,30.84,30.84,0,0,1-4-2.79,11.76,11.76,0,0,0,2.83-6.94c0-.28-.2-.63-1.13-.73l-3.54-.2c-.55,0-.61.3-.61.43s.19.38.49.38a2.09,2.09,0,0,1,1.34.41,1.57,1.57,0,0,1,.52,1.24,8.65,8.65,0,0,1-1.3,4.3c-1-.89-4.13-3.73-5-4.77l-.89-1c-2-2.2-3.95-4.29-3.95-6.65a3,3,0,0,1,3-3.21,3.86,3.86,0,0,1,3.15,1.27,3.67,3.67,0,0,1,.82,2.38c0,.36,0,.7.35.7s.45-.25.5-.62a35.34,35.34,0,0,0,.32-3.78.78.78,0,0,0-.59-.91,10.5,10.5,0,0,0-3.61-.62,7.77,7.77,0,0,0-5.79,2.06m-1,13.25a5.09,5.09,0,0,1,1.86-4.26c.6.83,2.38,2.82,3.06,3.56s3.47,3.47,5.18,5a7.57,7.57,0,0,1-4.6,1.63c-3.19,0-5.5-2.48-5.5-5.89"/><path class="cls-1" d="M137.2,99.66c2.85,0,3.38-.23,4.59-1.21l1.58-1.32s1-.76.74-1.11-.92.25-.92.25A6.75,6.75,0,0,1,141,97a16.51,16.51,0,0,1-3.35.2H121.34c-2.86,0-3.39.24-4.6,1.21l-1.57,1.32s-1,.76-.74,1.11.92-.25.92-.25a6.77,6.77,0,0,1,2.21-.77,17.58,17.58,0,0,1,3.35-.19Z"/><path class="cls-1" d="M51.76,121.93a116.94,116.94,0,0,1-35.22-5.43C1.61,69.55,6.13,28.39,6.13,28.39,24.22,24.3,24,7.35,24,7.35a196.36,196.36,0,0,1,27.76-2,177.83,177.83,0,0,1,27.17,2s0,17.27,17.86,21c0,0,4.52,41.16-10.4,88.11a109.22,109.22,0,0,1-34.63,5.43m0-112.53h0a197.8,197.8,0,0,0-24,1.54A25.71,25.71,0,0,1,10,31.56c-.17,2.53-.37,6.75-.37,12.32a241.92,241.92,0,0,0,10.25,69.39,117,117,0,0,0,31.92,4.58h0a110,110,0,0,0,31.28-4.55A241.82,241.82,0,0,0,93.34,43.88c0-5.55-.21-9.74-.38-12.29A25.6,25.6,0,0,1,75.18,10.92,182.7,182.7,0,0,0,51.76,9.4"/><path class="cls-1" d="M45,34.33A6.88,6.88,0,1,1,44.41,37,6.87,6.87,0,0,1,45,34.33"/><path class="cls-1" d="M70.08,58.92a18,18,0,0,1-8.82-.6,20.55,20.55,0,0,1-7-3.56l-.81,16.46a12.78,12.78,0,0,0,3.4-1.9,5.73,5.73,0,0,0,2.23-4.76v0h3.19A12.1,12.1,0,0,1,62,66.76a9.08,9.08,0,0,1-3.23,4.91,14.09,14.09,0,0,1-3.07,1.83h0l.2.11c.23.14.47.27.7.43s.25.16.38.24l.65.5a3.47,3.47,0,0,1,.37.3c.22.19.43.4.64.62l.31.31a10.67,10.67,0,0,1,.85,1.1,5.31,5.31,0,0,1,.26,5.4,8.31,8.31,0,0,1-3.78,3.09L55,86.13h0a.91.91,0,0,1,.14.07A7.33,7.33,0,0,1,58,88.66a4.36,4.36,0,0,1,.48,3.42,6.19,6.19,0,0,1-2.1,3,10.76,10.76,0,0,1-2.76,1.63h0c.31.19.62.4.91.62l.28.22c.25.19.49.4.72.6a3.57,3.57,0,0,0,.28.27,6.89,6.89,0,0,1,.83,1,4.71,4.71,0,0,1-.49,5.9h0l0,0h0a2.94,2.94,0,0,0,.66-1.55,4.17,4.17,0,0,0-.91-3.7A6,6,0,0,0,55,99.2l-.43-.28c-.2-.12-.39-.26-.6-.38l-.62-.3c-.18-.08-.35-.18-.53-.25l-.64-.28,0,.81-.36,7.32h0a.44.44,0,0,1-.88,0h0L50.47,98c-.2.08-.39.18-.58.27A8.24,8.24,0,0,0,47.42,100a4.13,4.13,0,0,0-.91,3.68,3,3,0,0,0,.65,1.55h0a3.22,3.22,0,0,1-.94-1.49,4.76,4.76,0,0,1,.46-4.38,9.29,9.29,0,0,1,1.51-1.56h0l.29-.21a4.83,4.83,0,0,1,.45-.34l.14-.11h0l.43-.28.25-.16h0l-.51-.24L49,96.36a10.18,10.18,0,0,1-1-.53c-.07,0-.15-.09-.22-.15a7.48,7.48,0,0,1-.91-.65,6.22,6.22,0,0,1-2.08-3,4.27,4.27,0,0,1,.47-3.4,7.45,7.45,0,0,1,2.81-2.45l.18-.1c-.42-.17-.85-.34-1.29-.54a8.23,8.23,0,0,1-3.77-3.08,5.28,5.28,0,0,1,.25-5.37,10.67,10.67,0,0,1,2.46-2.58h0l0,0,.35-.24.36-.25a.05.05,0,0,1,0,0l.11-.07.64-.37.14-.08h0l-.6-.31c-.35-.17-.7-.34-1-.53a11.69,11.69,0,0,1-1.48-1,9.06,9.06,0,0,1-3.22-4.9,9.74,9.74,0,0,1-.24-1.9v0a.66.66,0,0,1,0-.13v-.12l0,0h3.19a5.83,5.83,0,0,0,2.24,4.76,9.54,9.54,0,0,0,1.09.78l.52.28c.25.13.49.28.76.41.11,0,.24.09.35.15l-.79-16.23c-.74.53-1.47,1-2.19,1.42a18.81,18.81,0,0,1-3.57,1.76,18.11,18.11,0,0,1-10.65.94l-.13,0-.07,0a19.61,19.61,0,0,1-12.18-7.66l-.31-.37,16.22-11.1h0l0,0L51.2,50.22h.26L67.13,39.64h0l0,0L83.39,50.73l-.5-.3.45.31v0l.34.21a20.26,20.26,0,0,1-13.59,8M49.25,88.33c-4.21,2-1.42,4.7-.93,5.06A4.81,4.81,0,0,0,49,94l.3.2a6.7,6.7,0,0,0,.59.39,3.81,3.81,0,0,0,.4.23L50,88c-.25.11-.5.22-.73.35m.22-10.68,0-.35-.07-1.5-.31.14a8.39,8.39,0,0,0-3.27,2.62,2.63,2.63,0,0,0-.27,2.65,5.86,5.86,0,0,0,2.58,2.06,17.86,17.86,0,0,0,1.67.72Zm3.16,10-.37,7.56a10.76,10.76,0,0,0,2.68-1.83c.49-.34,3.3-3.08-.94-5.1a11.56,11.56,0,0,0-1.37-.63m.6-12.19-.09,1.87-.34,6.91.3-.1.31-.12c.6-.23,1.18-.47,1.74-.74a6,6,0,0,0,2.58-2.08,2.62,2.62,0,0,0-.27-2.67,6.24,6.24,0,0,0-.5-.65l-.24-.22a4.17,4.17,0,0,0-.37-.36,3.92,3.92,0,0,0-.32-.25l-.38-.29a3,3,0,0,0-.38-.24c-.12-.08-.25-.17-.38-.24a3.75,3.75,0,0,0-.44-.24l-.36-.2-.49-.22-.35-.15h0"/><path class="cls-1" d="M124.93,116.43H114.87a.35.35,0,1,1,0-.7h10.06a.35.35,0,0,1,0,.7"/><path class="cls-1" d="M269.41,116.43H259.35a.35.35,0,1,1,0-.7h10.06a.35.35,0,1,1,0,.7"/><path class="cls-1" d="M132.53,116.63c0,1.49,0,2.29.25,2.5s.49.25,1.4.25c.61,0,1.07,0,1.36-.32a1.53,1.53,0,0,0,.3-.7c0-.1,0-.17.13-.17s.09.06.09.2a8.5,8.5,0,0,1-.18,1.33c-.07.25-.12.31-.73.31-.83,0-1.43,0-2,0s-.94,0-1.41,0h-.66c-.27,0-.57,0-.8,0s-.24,0-.24-.12,0-.09.19-.09a1.61,1.61,0,0,0,.42-.05c.23,0,.29-.3.33-.64s.06-1.4.06-2.47v-2c0-1.76,0-2.09,0-2.46s-.12-.58-.5-.66a1.94,1.94,0,0,0-.38,0c-.13,0-.2,0-.2-.11s.08-.1.26-.1c.54,0,1.27,0,1.58,0l1.58,0c.16,0,.25,0,.25.1s-.07.11-.21.11a3.67,3.67,0,0,0-.46,0c-.31.06-.4.26-.42.66s0,.7,0,2.46Z"/><path class="cls-1" d="M138.85,115.61a4.46,4.46,0,0,1,4.79-4.54c2.89,0,4.69,1.68,4.69,4.33a4.58,4.58,0,0,1-4.8,4.76,4.42,4.42,0,0,1-4.68-4.55m7.86.22c0-2.59-1.5-4.21-3.4-4.21-1.34,0-2.86.74-2.86,3.63,0,2.42,1.34,4.33,3.57,4.33.81,0,2.69-.39,2.69-3.75"/><path class="cls-1" d="M153.12,118.9a4.59,4.59,0,0,1-.08-6.6,5.06,5.06,0,0,1,3.67-1.23,11.52,11.52,0,0,1,1.68.11c.44.06.81.16,1.16.2.13,0,.17.07.17.14s0,.23-.06.64,0,1,0,1.25,0,.27-.14.27-.12-.1-.12-.26a1.65,1.65,0,0,0-.45-1.07,3.49,3.49,0,0,0-2.35-.72,3,3,0,0,0-2.18.72,4.34,4.34,0,0,0,2.58,7.14,2.54,2.54,0,0,0,2.13-.65,2.08,2.08,0,0,0,.39-.77c0-.18.06-.23.15-.23s.11.08.11.17a10.75,10.75,0,0,1-.26,1.55.41.41,0,0,1-.3.33,6.63,6.63,0,0,1-2.09.27,5.84,5.84,0,0,1-4-1.26"/><path class="cls-1" d="M163.81,114.59c0-1.76,0-2.09,0-2.46s-.11-.58-.5-.66a2.72,2.72,0,0,0-.45,0c-.13,0-.2,0-.2-.11s.09-.1.26-.1c.61,0,1.34,0,1.69,0l1.43,0c.17,0,.25,0,.25.1s-.07.11-.18.11a2,2,0,0,0-.34,0c-.31.06-.4.26-.43.66s0,.7,0,2.46v1.63c0,1.68.34,2.39.9,2.85a2.17,2.17,0,0,0,1.45.48,2.31,2.31,0,0,0,1.61-.63c.63-.64.67-1.68.67-2.88v-1.45c0-1.76,0-2.09,0-2.46s-.12-.58-.5-.66a2.67,2.67,0,0,0-.42,0c-.13,0-.2,0-.2-.11s.08-.1.25-.1c.59,0,1.32,0,1.33,0s.87,0,1.32,0c.16,0,.25,0,.25.1s-.07.11-.21.11a2,2,0,0,0-.34,0c-.31.06-.41.26-.43.66s0,.7,0,2.46v1.24a4.39,4.39,0,0,1-1.1,3.49,3.47,3.47,0,0,1-2.42.84,3.69,3.69,0,0,1-2.57-.8,3.8,3.8,0,0,1-1-3.07Z"/><path class="cls-1" d="M176.51,111.27c0-.19.1-.3.19-.3s.17.06.32.36l3.16,6.54,3.16-6.62c.09-.18.15-.28.25-.28s.18.12.21.36l1.06,7.17c.1.73.22,1.07.57,1.17a2.18,2.18,0,0,0,.72.12c.1,0,.18,0,.18.08s-.14.13-.3.13-1.89,0-2.35-.07c-.27,0-.34-.06-.34-.13s0-.09.13-.13.1-.17.06-.5l-.7-5.1h-.05l-2.53,5.27c-.26.54-.32.65-.43.65s-.22-.24-.4-.58c-.28-.54-1.2-2.31-1.34-2.64s-.8-1.7-1.2-2.57h0l-.6,4.61a5.48,5.48,0,0,0,0,.55c0,.22.15.32.35.37a2.06,2.06,0,0,0,.49.06c.09,0,.17,0,.17.08s-.1.13-.28.13c-.48,0-1,0-1.21,0s-.78,0-1.15,0c-.12,0-.21,0-.21-.13s.07-.08.19-.08a1.25,1.25,0,0,0,.34,0c.33-.07.42-.52.48-.91Z"/><path class="cls-1" d="M197.35,111.88l-1.73,0c-.67,0-1,.09-1.12.34a1.15,1.15,0,0,0-.2.41c0,.09-.06.14-.13.14s-.1-.06-.1-.19.22-1.24.24-1.33.07-.22.14-.22a2.9,2.9,0,0,0,.5.13,10.71,10.71,0,0,0,1.16.06h4.59a4.77,4.77,0,0,0,.81-.06l.31,0c.08,0,.09.07.09.24s0,1,0,1.35c0,.11,0,.18-.11.18s-.11-.06-.13-.23v-.13c0-.3-.33-.62-1.37-.65l-1.46,0v4.75c0,1.07,0,2,.06,2.49,0,.32.1.58.45.62a3.92,3.92,0,0,0,.59.05c.13,0,.19,0,.19.09s-.09.12-.22.12c-.77,0-1.5,0-1.82,0s-1,0-1.46,0c-.15,0-.24,0-.24-.12s.05-.09.19-.09a1.61,1.61,0,0,0,.42-.05c.23,0,.3-.3.33-.64s.06-1.4.06-2.47Z"/><path class="cls-1" d="M206.12,114.59c0-1.76,0-2.09,0-2.46s-.12-.58-.5-.66a2.72,2.72,0,0,0-.45,0c-.13,0-.2,0-.2-.11s.08-.1.26-.1h.93l.74,0h2.9a4.28,4.28,0,0,0,.49-.07,1.29,1.29,0,0,1,.19,0c.06,0,.07,0,.07.1a6.39,6.39,0,0,0-.09.75c0,.12,0,.63-.06.77s0,.13-.12.13-.1-.06-.1-.17a1.17,1.17,0,0,0-.07-.41c-.08-.21-.2-.35-.78-.42-.2,0-1.41,0-1.65,0,0,0-.08,0-.08.12v2.93c0,.08,0,.13.08.13.26,0,1.59,0,1.86,0s.45-.06.56-.18.12-.15.18-.15.08,0,.08.1,0,.25-.09.84c0,.24-.05.7-.05.78s0,.22-.1.22a.09.09,0,0,1-.1-.1c0-.12,0-.27-.05-.42s-.22-.41-.65-.45c-.22,0-1.37,0-1.65,0-.06,0-.07.05-.07.12v.91c0,.4,0,1.47,0,1.8,0,.8.21,1,1.4,1a3,3,0,0,0,1.09-.14c.3-.14.44-.39.52-.86,0-.13,0-.18.13-.18s.09.1.09.21a8.76,8.76,0,0,1-.15,1.29c-.08.3-.19.3-.63.3-.87,0-1.51,0-2,0s-.85,0-1.2,0h-.66c-.27,0-.57,0-.8,0s-.24,0-.24-.12,0-.09.19-.09a1.61,1.61,0,0,0,.42-.05c.23,0,.29-.3.33-.64s.06-1.4.06-2.47Z"/><path class="cls-1" d="M216.18,118.42c0,.9.17,1.21.4,1.29a1.86,1.86,0,0,0,.61.08c.13,0,.2,0,.2.09s-.11.12-.27.12c-.76,0-1.22,0-1.44,0s-.65,0-1.25,0c-.15,0-.26,0-.26-.12s.07-.09.19-.09a1.89,1.89,0,0,0,.52-.06c.3-.09.35-.43.36-1.44l.1-6.86c0-.24,0-.4.15-.4s.24.15.43.36,1.91,2,3.6,3.72c.79.79,2.35,2.46,2.55,2.65h.06l-.12-5.21c0-.71-.11-.93-.39-1a1.88,1.88,0,0,0-.62-.07c-.13,0-.18,0-.18-.11s.13-.1.3-.1c.6,0,1.16,0,1.4,0s.57,0,1.14,0c.15,0,.27,0,.27.1s-.07.11-.21.11a1.46,1.46,0,0,0-.35,0c-.32.09-.42.34-.43,1l-.13,7.32c0,.25,0,.36-.15.36s-.26-.13-.39-.26c-.73-.69-2.22-2.21-3.42-3.41s-2.56-2.7-2.76-2.92h0Z"/><path class="cls-1" d="M228.59,114.59c0-1.76,0-2.09,0-2.46s-.12-.58-.5-.66a2.72,2.72,0,0,0-.45,0c-.13,0-.2,0-.2-.11s.08-.1.25-.1h.94l.73,0h2.9a4.2,4.2,0,0,0,.5-.07,1.29,1.29,0,0,1,.19,0c.06,0,.07,0,.07.1a6.39,6.39,0,0,0-.09.75c0,.12,0,.63-.06.77s0,.13-.12.13-.1-.06-.1-.17a1.17,1.17,0,0,0-.07-.41c-.08-.21-.2-.35-.78-.42-.2,0-1.41,0-1.65,0,0,0-.08,0-.08.12v2.93c0,.08,0,.13.08.13.26,0,1.59,0,1.86,0s.45-.06.56-.18.12-.15.18-.15.08,0,.08.1,0,.25-.09.84c0,.24-.05.7-.05.78s0,.22-.1.22a.09.09,0,0,1-.1-.1c0-.12,0-.27-.05-.42s-.22-.41-.65-.45c-.22,0-1.37,0-1.65,0-.06,0-.07.05-.07.12v.91c0,.4,0,1.47,0,1.8,0,.8.21,1,1.39,1a2.9,2.9,0,0,0,1.09-.14c.31-.14.45-.39.53-.86,0-.13,0-.18.12-.18s.1.1.1.21a10.36,10.36,0,0,1-.15,1.29c-.09.3-.19.3-.63.3-.87,0-1.51,0-2,0s-.86,0-1.2,0h-.66c-.27,0-.57,0-.8,0s-.24,0-.24-.12,0-.09.19-.09a1.61,1.61,0,0,0,.42-.05c.23,0,.29-.3.33-.64s.06-1.4.06-2.47Z"/><path class="cls-1" d="M238.65,118.42c0,.9.17,1.21.4,1.29a1.86,1.86,0,0,0,.61.08c.12,0,.19,0,.19.09s-.1.12-.26.12c-.76,0-1.22,0-1.44,0s-.65,0-1.25,0c-.15,0-.26,0-.26-.12s.07-.09.19-.09a1.89,1.89,0,0,0,.52-.06c.3-.09.35-.43.36-1.44l.1-6.86c0-.24,0-.4.15-.4s.24.15.43.36,1.9,2,3.6,3.72c.79.79,2.35,2.46,2.55,2.65h.06l-.12-5.21c0-.71-.11-.93-.39-1a1.91,1.91,0,0,0-.62-.07c-.14,0-.18,0-.18-.11s.13-.1.3-.1c.6,0,1.16,0,1.4,0s.57,0,1.14,0c.15,0,.27,0,.27.1s-.07.11-.21.11a1.46,1.46,0,0,0-.35,0c-.33.09-.42.34-.43,1l-.13,7.32c0,.25,0,.36-.15.36s-.26-.13-.39-.26c-.73-.69-2.22-2.21-3.42-3.41s-2.56-2.7-2.76-2.92h0Z"/><path class="cls-1" d="M250.42,119.86c-.18-.08-.22-.14-.22-.4,0-.63.05-1.33.06-1.52s.05-.3.14-.3.11.11.11.2a2.41,2.41,0,0,0,.11.59,1.59,1.59,0,0,0,1.66,1.17,1.4,1.4,0,0,0,1.55-1.32c0-.57-.17-1.1-1.13-1.86l-.54-.41c-1.27-1-1.72-1.81-1.72-2.75,0-1.28,1.07-2.19,2.68-2.19a5.76,5.76,0,0,1,1.55.19c.1,0,.16.06.16.14s-.05.49-.05,1.39c0,.26,0,.35-.12.35s-.12-.07-.12-.21a1.42,1.42,0,0,0-.3-.76,1.48,1.48,0,0,0-1.27-.57,1.22,1.22,0,0,0-1.38,1.19c0,.54.27.94,1.23,1.67l.33.25c1.4,1.05,1.9,1.85,1.9,3a2.33,2.33,0,0,1-1.09,2,3.28,3.28,0,0,1-1.84.48,4,4,0,0,1-1.7-.3"/></svg>