<svg id="Layer_1" data-name="Layer 1" xmlns="http://www.w3.org/2000/svg" viewBox="0 0 269.64 118.35"><defs><style>.cls-1{fill:#004b8d;}</style></defs><title>JCLT-LogoHorBlue</title><path class="cls-1" d="M120.24,112.14H110.18a.36.36,0,0,1,0-.71h10.06a.36.36,0,1,1,0,.71"/><path class="cls-1" d="M264.73,112.14H254.66a.36.36,0,0,1,0-.71h10.07a.36.36,0,0,1,0,.71"/><path class="cls-1" d="M110,36.71c0-6.92,0-8.2-.09-9.66s-.46-2.28-2-2.59a8.71,8.71,0,0,0-1.78-.14c-.5,0-.78-.09-.78-.41s.32-.41,1-.41c2.41,0,5.28.14,6.47.14s4-.14,5.74-.14c.64,0,1,.09,1,.41s-.28.41-.82.41a6.18,6.18,0,0,0-1.32.14c-1.23.22-1.6,1-1.69,2.59s-.09,2.74-.09,9.66v8.43c0,2,.13,4.15.13,6.43a24.5,24.5,0,0,1-1.09,8.07c-1,2.78-3.37,5.92-7.75,8.61a25,25,0,0,1-2.27,1.18,2,2,0,0,1-.92.28.36.36,0,0,1-.36-.37c0-.22.23-.41,1-.82a9.59,9.59,0,0,0,2.19-1.73c3.46-3.51,3.42-8.07,3.42-17Z"/><path class="cls-1" d="M126.15,49c-.18,0-.24.07-.31.28L124,54.16a6.61,6.61,0,0,0-.51,2.08c0,.62.31,1.06,1.37,1.06h.51c.41,0,.51.07.51.27s-.2.34-.58.34c-1.09,0-2.56-.1-3.62-.1-.38,0-2.26.1-4,.1-.44,0-.64-.06-.64-.34s.13-.27.41-.27a8.81,8.81,0,0,0,1-.07c1.58-.2,2.23-1.37,2.91-3.07l8.58-21.47c.41-1,.61-1.36,1-1.36s.51.3.85,1.09c.82,1.88,6.29,15.82,8.48,21,1.3,3.08,2.29,3.55,3,3.72a7.05,7.05,0,0,0,1.44.14c.27,0,.44,0,.44.27s-.3.34-1.57.34-3.72,0-6.46-.06c-.61,0-1,0-1-.28s.13-.27.47-.3a.56.56,0,0,0,.31-.79l-2.73-7.25a.33.33,0,0,0-.34-.24Zm7-1.7c.17,0,.2-.11.17-.21l-3.08-8.44c0-.14-.07-.31-.17-.31s-.17.17-.2.31l-3.15,8.41c0,.13,0,.24.14.24Z"/><path class="cls-1" d="M146.65,54.67a12.89,12.89,0,0,1-4.24-10.08,12.87,12.87,0,0,1,4-9.37c2.46-2.25,5.71-3.62,10.8-3.62a33.17,33.17,0,0,1,5,.34c1.3.17,2.39.48,3.42.58.37,0,.51.21.51.41s-.1.69-.17,1.88,0,3-.1,3.69c0,.52-.11.79-.42.79s-.34-.27-.34-.75a4.89,4.89,0,0,0-1.33-3.15c-1.13-1.19-3.79-2.12-6.94-2.12a8.93,8.93,0,0,0-6.42,2.12c-2.5,2.29-3.15,5.54-3.15,8.85,0,8.14,6.19,12.17,10.77,12.17,3,0,4.89-.34,6.25-1.91a5.61,5.61,0,0,0,1.16-2.26c.11-.54.18-.68.45-.68s.31.24.31.51a31.51,31.51,0,0,1-.76,4.55,1.18,1.18,0,0,1-.88,1,20.08,20.08,0,0,1-6.16.78c-4.68,0-8.61-1-11.72-3.72"/><path class="cls-1" d="M175.09,43.49h.17c1.16-1.26,6.15-6.36,7.14-7.52s1.71-2,1.71-2.56c0-.38-.14-.61-.48-.68s-.44-.14-.44-.35.17-.3.54-.3c.72,0,2.6.1,3.52.1s2.94-.1,4-.1c.35,0,.58.07.58.3s-.17.31-.51.31a6.65,6.65,0,0,0-2,.38,11,11,0,0,0-3.69,2.56c-1.06,1-6.22,6.15-7.38,7.38,1.23,1.61,7.92,8.82,9.26,10.09a16.23,16.23,0,0,0,4.89,3.69,5.86,5.86,0,0,0,2.11.51c.24,0,.45.07.45.27s-.17.34-.82.34h-3c-1,0-1.64,0-2.35-.06-1.85-.17-2.77-.93-4.24-2.22s-8.24-9.23-9-10.22l-.37-.52h-.17V48c0,3.15,0,5.85.1,7.32.07,1,.38,1.71,1.23,1.84a14.1,14.1,0,0,0,1.67.14c.28,0,.45.1.45.27s-.27.34-.65.34c-1.91,0-4.07-.1-4.92-.1s-2.94.1-4.31.1c-.44,0-.68-.1-.68-.34s.13-.27.54-.27a5.51,5.51,0,0,0,1.24-.14c.68-.13.85-.88,1-1.87.18-1.44.18-4.14.18-7.29V42c0-5.2,0-6.15-.07-7.25s-.34-1.71-1.47-1.94a6.89,6.89,0,0,0-1.33-.11c-.38,0-.59-.07-.59-.31s.24-.3.76-.3c1.81,0,4,.1,4.78.1s3-.1,4.14-.1c.48,0,.72.07.72.3s-.21.31-.48.31a5,5,0,0,0-1,.11c-.92.17-1.2.75-1.27,1.94s-.06,2-.06,7.25Z"/><path class="cls-1" d="M195.45,57.51c-.54-.24-.64-.41-.64-1.17,0-1.88.13-3.93.17-4.47s.13-.89.41-.89.34.3.34.58A7.28,7.28,0,0,0,196,53.3a4.71,4.71,0,0,0,4.89,3.45c3.07,0,4.57-2.08,4.57-3.89s-.51-3.25-3.35-5.47l-1.57-1.23c-3.76-2.94-5.05-5.33-5.05-8.1,0-3.76,3.14-6.46,7.89-6.46a16.58,16.58,0,0,1,4.55.58c.3.07.47.17.47.41,0,.44-.13,1.44-.13,4.1,0,.75-.11,1-.38,1s-.34-.21-.34-.62a4.08,4.08,0,0,0-.89-2.25A4.31,4.31,0,0,0,203,33.17c-2.53,0-4.07,1.47-4.07,3.52,0,1.57.78,2.77,3.62,4.92l1,.72c4.13,3.11,5.6,5.47,5.6,8.72A6.87,6.87,0,0,1,205.88,57a9.81,9.81,0,0,1-5.43,1.4,12.08,12.08,0,0,1-5-.88"/><path class="cls-1" d="M211.79,45c0-5.85,3.87-13.4,14.12-13.4,8.51,0,13.81,4.95,13.81,12.78s-5.47,14-14.15,14c-9.81,0-13.78-7.34-13.78-13.39m23.14.65c0-7.66-4.41-12.41-10-12.41-3.93,0-8.41,2.19-8.41,10.7,0,7.11,3.93,12.75,10.49,12.75,2.4,0,7.93-1.17,7.93-11"/><path class="cls-1" d="M246.21,53.27c.07,2.66.51,3.55,1.2,3.79a5.28,5.28,0,0,0,1.77.24c.38,0,.58.07.58.27s-.3.34-.78.34c-2.22,0-3.59-.1-4.24-.1-.31,0-1.91.1-3.69.1-.44,0-.75,0-.75-.34s.2-.27.54-.27a5.91,5.91,0,0,0,1.54-.17c.89-.27,1-1.27,1.06-4.24l.31-20.23c0-.68.1-1.16.44-1.16s.69.44,1.27,1.06c.41.44,5.6,6,10.59,11,2.33,2.32,6.94,7.24,7.52,7.79h.17L263.4,36c0-2.08-.34-2.73-1.16-3.07a5.43,5.43,0,0,0-1.81-.21c-.41,0-.55-.1-.55-.31s.38-.3.89-.3c1.78,0,3.42.1,4.14.1.37,0,1.67-.1,3.35-.1.44,0,.78,0,.78.3s-.2.31-.61.31a3.48,3.48,0,0,0-1,.11c-1,.27-1.23,1-1.26,2.9l-.38,21.57c0,.75-.14,1.06-.44,1.06s-.79-.38-1.17-.76c-2.15-2-6.52-6.52-10.08-10-3.72-3.7-7.52-8-8.13-8.62h-.1Z"/><path class="cls-1" d="M150.59,69.25a14.46,14.46,0,0,0-4.45,10.41,14.17,14.17,0,0,0,4.72,11.19h0c3.24,2.81,7.37,4.13,13,4.13a21.79,21.79,0,0,0,6.82-.88,1.46,1.46,0,0,0,1.07-1.18,35.34,35.34,0,0,0,.83-5c0-.61-.3-.71-.48-.71-.45,0-.53.32-.63.87a6.28,6.28,0,0,1-1.24,2.42c-1.51,1.72-3.55,2-6.78,2-4.72,0-11.7-4.21-11.7-13.24,0-4.43,1.08-7.49,3.41-9.63,1.72-1.57,3.94-2.29,7-2.29,3.22,0,6.24.91,7.53,2.28A5.22,5.22,0,0,1,171.07,73c0,.33,0,1,.52,1s.56-.57.59-1l.06-1.92,0-2.15.19-2.07c0-.16-.06-.54-.69-.6l-1.83-.3L168,65.61a36.56,36.56,0,0,0-5.46-.38c-5.18,0-9,1.28-12,4"/><path class="cls-1" d="M174.28,83.1c0,5.66,3.78,11.75,12.08,11.75,7.3,0,12.4-5,12.4-12.28,0-6.93-4.64-11.23-12.11-11.23-8.5,0-12.37,6.1-12.37,11.76m4.37-.92c0-7.94,4.48-9.13,7.14-9.13a7.81,7.81,0,0,1,6.06,2.84,11.9,11.9,0,0,1,2.48,7.77c0,8.51-4.71,9.43-6.73,9.43-5.27,0-8.95-4.49-8.95-10.91"/><path class="cls-1" d="M219.22,71.8l-1.73,0-3.05-.09c-.19,0-.62,0-.62.41s.3.39.5.43.3.11.3.46-.58,1.11-1.33,2l-.12.15-3.81,4-2.28,2.39V80.49l.06-6.27c.07-1,.3-1.43,1-1.56l.8-.08c.48,0,.56-.26.56-.41,0-.41-.52-.41-.77-.41l-3.58.09-1.32,0L201,71.76c-.28,0-.79,0-.79.41s.47.41.64.41l1.12.08c.93.2,1.11.64,1.17,1.56l.06,6.27v5.22c0,2.71,0,5.05-.15,6.29-.13.92-.28,1.41-.75,1.5l-1,.12c-.16,0-.62,0-.62.38s.25.44.74.44l2.34,0,1.39,0,1.34,0,2.92.06c.64,0,.71-.31.71-.44s-.14-.38-.53-.38l-1.43-.12c-.58-.09-.88-.56-1-1.47l-.09-6.32V83.15h0l.21.39c.62.85,6.46,7.7,7.78,8.88s2.12,1.81,3.76,2l2.06.06h2.57c.43,0,.86,0,.86-.44,0-.09,0-.38-.53-.38a5,5,0,0,1-1.79-.44,13,13,0,0,1-4-2.94l-.23-.22c-1.13-1.08-6.73-7.11-7.93-8.63l6.3-6.31a9.67,9.67,0,0,1,3.16-2.19,5.73,5.73,0,0,1,1.66-.31c.16,0,.59,0,.59-.41s-.22-.41-.65-.41Z"/><path class="cls-1" d="M236.67,71.6l-.16,0-1.26.18-7.39,0-1.44,0-.42,0-2.41,0c-.28,0-.79,0-.79.41s.47.41.64.41l1.12.08c.93.2,1.12.64,1.17,1.56l.06,6.27v5.22c0,2.71,0,5.05-.15,6.29-.13.92-.28,1.41-.74,1.5l-1,.12c-.16,0-.62,0-.62.38s.25.44.73.44l2.05-.06,1.69,0,3.07.09.91,0,4.22.07c1.13,0,1.5,0,1.74-.88a23.55,23.55,0,0,0,.39-3.32c0-.3,0-.68-.38-.68s-.42.31-.46.56c-.21,1.2-.55,1.76-1.26,2.09a7.49,7.49,0,0,1-2.72.34c-3,0-3.36-.44-3.42-2.35V83.37l0-.16,4.21.09c1.16.13,1.43.63,1.54,1l.09.76,0,.28a.37.37,0,0,0,.41.4c.41,0,.41-.46.41-.71l.12-2,.24-2.17a.34.34,0,0,0-.35-.38L236,81a2,2,0,0,1-1.37.44l-4.73.06s-.07-.19-.07-.19V73.77c0-.16,0-.16.07-.16.56,0,3.69.06,4.19.12,1.45.18,1.69.52,1.87,1l.17,1c0,.14,0,.56.41.56.23,0,.37-.15.43-.44l.11-1.39,0-.58.2-1.63,0-.31c0-.34-.17-.41-.32-.41Z"/><path class="cls-1" d="M248.39,71.8l-2.17,0-1.18,0-2.88-.06c-.27,0-.79,0-.79.41s.47.41.64.41l1.12.08c.94.2,1.12.64,1.17,1.56l.06,6.27v5.22c0,2.71,0,5.05-.15,6.29-.12.92-.28,1.41-.74,1.5l-1,.12c-.15,0-.62,0-.62.38s.25.44.74.44l2.41-.06,1.2,0,1,0,3.4.07c.48,0,.73-.15.73-.44,0-.09,0-.38-.5-.38l-1.43-.12c-.75-.1-.94-.6-1-1.5-.15-1.24-.15-3.59-.15-6.32v-.42c0-.09,0-.09.1-.09l2.57.06a.49.49,0,0,1,.43.15l1.4,2,1.52,2.13c1.74,2.39,2.85,3.73,4.11,4.4a6.17,6.17,0,0,0,3.24.58h2.81c.21,0,.71,0,.71-.44,0-.09,0-.38-.5-.38l-.81-.09a5.78,5.78,0,0,1-3.24-2c-1.5-1.58-3.21-3.74-5.37-6.46,0,0-.83-1-1-1.22,2.69-2.21,3.85-4.21,3.85-6.65a5.27,5.27,0,0,0-2.07-4.17,9.57,9.57,0,0,0-5.53-1.3Zm-.08,11.43c-.11,0-.17-.09-.17-.4v-9c0-.21.05-.25.16-.28l1.54-.11c1.62,0,4.38,1.11,4.38,5.28,0,2.68-1.06,3.86-1.68,4.32a2.79,2.79,0,0,1-2,.48,7.59,7.59,0,0,1-2.21-.29"/><path class="cls-1" d="M118.79,67.62a5,5,0,0,0-1.5,3.45v.05a6.6,6.6,0,0,0,1.44,4.13c-1.89,1-4.74,3.65-4.74,7,0,2.47,1.76,6.64,8.33,6.64a9.51,9.51,0,0,0,7-2.64c2.47,1.88,3.55,2.23,6.94,2.23h2.27c.53,0,1-.05,1-.4s-.36-.41-.55-.41a8.47,8.47,0,0,1-3.08-1,30,30,0,0,1-4-2.79,11.8,11.8,0,0,0,2.84-7c0-.28-.2-.63-1.13-.73L130.09,76c-.55,0-.61.31-.61.44s.19.38.49.38a2.17,2.17,0,0,1,1.35.4,1.62,1.62,0,0,1,.51,1.25,8.72,8.72,0,0,1-1.3,4.31c-1-.89-4.13-3.74-5-4.79l-.9-1c-2-2.21-4-4.3-4-6.66a3,3,0,0,1,3-3.22,3.87,3.87,0,0,1,3.16,1.28,3.67,3.67,0,0,1,.82,2.38c0,.36,0,.7.35.7s.44-.25.49-.62a35,35,0,0,0,.33-3.79.77.77,0,0,0-.6-.9,10.19,10.19,0,0,0-3.61-.63,7.77,7.77,0,0,0-5.79,2.06m-1,13.27a5.06,5.06,0,0,1,1.87-4.26c.6.83,2.38,2.83,3.07,3.57s3.46,3.46,5.17,5a7.53,7.53,0,0,1-4.6,1.64c-3.19,0-5.51-2.48-5.51-5.9"/><path class="cls-1" d="M132.67,95.05c2.86,0,3.39-.24,4.6-1.21l1.58-1.32s1-.76.74-1.12-.92.25-.92.25a6.69,6.69,0,0,1-2.21.77,17.44,17.44,0,0,1-3.36.2l-16.31,0c-2.85,0-3.39.24-4.6,1.22l-1.57,1.32s-1,.76-.75,1.11.93-.25.93-.25a6.82,6.82,0,0,1,2.21-.76,16.57,16.57,0,0,1,3.36-.2Z"/><path class="cls-1" d="M47.13,117.35a117,117,0,0,1-35.27-5.44C-3.08,64.91,1.44,23.69,1.44,23.69,19.55,19.6,19.33,2.62,19.33,2.62a197,197,0,0,1,27.8-2,179.72,179.72,0,0,1,27.2,2s0,17.3,17.89,21.07c0,0,4.52,41.22-10.42,88.22a109.64,109.64,0,0,1-34.67,5.44m0-114.48h0A200.84,200.84,0,0,0,21.45,4.61c-.61,5.08-3.59,16.76-17.88,20.82-.18,2.33-.47,7.08-.47,13.77a242.11,242.11,0,0,0,10.59,70.92,118.06,118.06,0,0,0,33.44,5h0A110.85,110.85,0,0,0,80,110.14,242.34,242.34,0,0,0,90.57,39.2c0-6.64-.3-11.4-.48-13.74C75.55,21.5,72.75,8.76,72.22,4.6A184.43,184.43,0,0,0,47.13,2.87"/><path class="cls-1" d="M44.62,83.7c-4.22,2-1.43,4.71-.93,5.07a4.82,4.82,0,0,0,.7.62l.3.2c.19.13.38.26.6.39s.26.15.4.23l-.34-6.86a7.05,7.05,0,0,0-.73.35M44.84,73l0-.35-.07-1.51-.31.14a8.51,8.51,0,0,0-3.28,2.62,2.65,2.65,0,0,0-.26,2.66,6,6,0,0,0,2.57,2.06,18.06,18.06,0,0,0,1.68.72ZM48,83l-.37,7.57a10.49,10.49,0,0,0,2.68-1.82c.5-.35,3.3-3.09-.94-5.11A11.58,11.58,0,0,0,48,83M86.77,28.1A27.22,27.22,0,0,1,69.14,7.72a183.55,183.55,0,0,0-22-1.35A197.52,197.52,0,0,0,24.54,7.74,27.3,27.3,0,0,1,6.9,28.06c-.15,2.56-.31,6.33-.31,11.14a240.11,240.11,0,0,0,9.9,68.1,115.87,115.87,0,0,0,30.64,4.28,109.25,109.25,0,0,0,30-4.23A240.26,240.26,0,0,0,87.07,39.2c0-4.78-.15-8.54-.3-11.1M40.32,29.64a6.91,6.91,0,1,1-.54,2.7,6.88,6.88,0,0,1,.54-2.7M65.48,54.26a17.93,17.93,0,0,1-8.84-.61,20.34,20.34,0,0,1-7-3.56l-.81,16.49a12.79,12.79,0,0,0,3.4-1.91,5.73,5.73,0,0,0,2.24-4.77h3.18a12.15,12.15,0,0,1-.27,2.23A9.1,9.1,0,0,1,54.13,67a14.33,14.33,0,0,1-3.07,1.83h0a1.18,1.18,0,0,1,.19.11c.24.13.47.27.7.42l.39.25.65.5c.12.1.25.19.37.3s.43.4.64.62.21.2.3.31a10.8,10.8,0,0,1,.87,1.1,5.35,5.35,0,0,1,.25,5.41A8.38,8.38,0,0,1,51.63,81c-.42.19-.84.35-1.25.52h0l.14.07A7.47,7.47,0,0,1,53.34,84a4.36,4.36,0,0,1,.48,3.42,6.2,6.2,0,0,1-2.1,3A11,11,0,0,1,49,92.07h0c.3.19.61.4.91.62l.27.22c.26.19.49.39.73.6l.27.27a7.7,7.7,0,0,1,.84,1,4.72,4.72,0,0,1-.49,5.91h0v0h0a3.11,3.11,0,0,0,.66-1.56,4.21,4.21,0,0,0-.92-3.7,5.13,5.13,0,0,0-.89-.78c-.13-.1-.29-.19-.43-.28s-.39-.26-.6-.38l-.62-.3-.53-.26-.64-.28,0,.82-.36,7.33h0a.44.44,0,1,1-.88,0h0l-.39-7.83c-.2.08-.39.18-.58.27a8.41,8.41,0,0,0-2.48,1.71,4.16,4.16,0,0,0-.91,3.68,2.93,2.93,0,0,0,.65,1.55v0h0a3.09,3.09,0,0,1-1-1.49A4.81,4.81,0,0,1,42,94.76a9,9,0,0,1,1.52-1.56h0l.3-.22.44-.34.15-.11h0l.43-.28.24-.17h0l-.51-.23-.17-.09c-.34-.17-.67-.35-1-.54l-.23-.14a7.44,7.44,0,0,1-.9-.66,6.1,6.1,0,0,1-2.09-3,4.33,4.33,0,0,1,.47-3.41,7.42,7.42,0,0,1,2.82-2.46l.18-.1c-.43-.16-.86-.34-1.3-.54a8.35,8.35,0,0,1-3.78-3.08,5.3,5.3,0,0,1,.26-5.38,10.67,10.67,0,0,1,2.46-2.58h0l0,0c.11-.09.23-.16.35-.24A2.8,2.8,0,0,1,42,69.4a.05.05,0,0,1,0,0,.41.41,0,0,1,.11-.07c.22-.13.43-.26.65-.37l.14-.08h0c-.22-.1-.4-.21-.61-.31s-.7-.34-1-.53a11.13,11.13,0,0,1-1.49-1,9.06,9.06,0,0,1-3.22-4.91,10.89,10.89,0,0,1-.25-1.91v-.27l0,0h3.19a5.83,5.83,0,0,0,2.24,4.76,11.7,11.7,0,0,0,1.09.78l.52.28c.25.14.5.28.77.41l.35.15L43.71,50c-.74.54-1.46,1-2.18,1.43A19.83,19.83,0,0,1,38,53.21a18.15,18.15,0,0,1-10.66.94l-.13,0-.08,0a19.63,19.63,0,0,1-12.19-7.67l-.31-.37L30.82,35h0l0,0L46.56,45.55h.27L62.51,35h0l0,0L78.8,46.06l-.5-.3.45.31v0l.34.21a20.28,20.28,0,0,1-13.6,8M48.6,70.84l-.09,1.87-.34,6.93.3-.11.32-.12c.59-.23,1.17-.47,1.73-.74a6.05,6.05,0,0,0,2.59-2.08,2.66,2.66,0,0,0-.27-2.67,4.56,4.56,0,0,0-.51-.65c-.07-.08-.16-.15-.23-.23a4.35,4.35,0,0,0-.38-.36,3.92,3.92,0,0,0-.32-.25,3.8,3.8,0,0,0-.38-.29c-.11-.08-.25-.16-.38-.24l-.37-.24-.44-.24-.37-.2L49,71l-.35-.15h0"/><path class="cls-1" d="M127.85,112.94c0,1.48,0,2.28.24,2.49s.5.26,1.4.26c.62,0,1.07,0,1.36-.33a1.39,1.39,0,0,0,.3-.69c0-.11,0-.18.13-.18s.09.06.09.2a9.26,9.26,0,0,1-.17,1.33c-.07.26-.13.32-.73.32-.84,0-1.44,0-2,0s-.94,0-1.42,0h-.66l-.8,0c-.15,0-.23,0-.23-.11s0-.1.18-.1a2.12,2.12,0,0,0,.42,0c.23,0,.29-.3.34-.64s.06-1.4.06-2.47v-2c0-1.77,0-2.09,0-2.46s-.11-.58-.5-.66a1.34,1.34,0,0,0-.38,0c-.13,0-.2,0-.2-.1s.09-.11.26-.11c.54,0,1.28,0,1.59,0s1.12,0,1.58,0c.16,0,.24,0,.24.11s-.07.1-.21.1a2.35,2.35,0,0,0-.45,0c-.31.06-.41.25-.43.66s0,.69,0,2.46Z"/><path class="cls-1" d="M134.17,111.92a4.47,4.47,0,0,1,4.79-4.55c2.89,0,4.69,1.68,4.69,4.34a4.59,4.59,0,0,1-4.81,4.76,4.42,4.42,0,0,1-4.67-4.55m7.85.22c0-2.6-1.49-4.21-3.4-4.21-1.33,0-2.85.74-2.85,3.63,0,2.41,1.33,4.33,3.56,4.33.81,0,2.69-.4,2.69-3.75"/><path class="cls-1" d="M148.44,115.2a4.59,4.59,0,0,1-.08-6.6,5.06,5.06,0,0,1,3.66-1.23,11.28,11.28,0,0,1,1.68.12c.44.06.81.16,1.16.19.13,0,.18.07.18.14s0,.24-.06.64,0,1,0,1.25,0,.27-.14.27-.11-.09-.11-.25a1.65,1.65,0,0,0-.45-1.07,3.46,3.46,0,0,0-2.36-.72,3,3,0,0,0-2.18.72,4.33,4.33,0,0,0,2.59,7.13c1,0,1.66-.11,2.12-.65a1.78,1.78,0,0,0,.39-.76c0-.19.06-.23.16-.23s.1.08.1.17a10.44,10.44,0,0,1-.26,1.54.39.39,0,0,1-.3.34,6.82,6.82,0,0,1-2.08.27,5.78,5.78,0,0,1-4-1.27"/><path class="cls-1" d="M159.12,110.9c0-1.77,0-2.09,0-2.46s-.12-.58-.5-.66a1.87,1.87,0,0,0-.45,0c-.13,0-.2,0-.2-.1s.08-.11.25-.11c.62,0,1.35,0,1.7,0s1,0,1.42,0c.18,0,.26,0,.26.11s-.07.1-.19.1a1.35,1.35,0,0,0-.33,0c-.32.06-.41.25-.43.66s0,.69,0,2.46v1.62c0,1.68.34,2.39.91,2.86a2.19,2.19,0,0,0,1.45.47,2.24,2.24,0,0,0,1.6-.63c.64-.63.67-1.68.67-2.87V110.9c0-1.77,0-2.09,0-2.46s-.12-.58-.5-.66a1.76,1.76,0,0,0-.42,0c-.12,0-.19,0-.19-.1s.08-.11.24-.11c.59,0,1.32,0,1.33,0s.87,0,1.33,0c.16,0,.24,0,.24.11s-.07.1-.21.1a1.37,1.37,0,0,0-.34,0c-.31.06-.4.25-.42.66s0,.69,0,2.46v1.24a4.39,4.39,0,0,1-1.1,3.49,3.45,3.45,0,0,1-2.41.84,3.73,3.73,0,0,1-2.58-.81,3.8,3.8,0,0,1-1-3.07Z"/><path class="cls-1" d="M171.82,107.58c0-.2.11-.3.2-.3s.16.06.31.36l3.17,6.54,3.15-6.62c.1-.19.15-.28.26-.28s.17.11.21.36l1,7.17c.11.73.22,1.06.57,1.17a2.42,2.42,0,0,0,.72.11c.11,0,.19,0,.19.09s-.14.12-.3.12-1.9,0-2.36-.07c-.27,0-.34,0-.34-.12s0-.1.13-.13.11-.18.06-.5l-.7-5.1h0l-2.53,5.26c-.27.55-.33.65-.43.65s-.22-.23-.41-.58c-.28-.53-1.19-2.31-1.33-2.63s-.8-1.71-1.21-2.58h0l-.61,4.62a5.36,5.36,0,0,0,0,.55c0,.22.15.32.35.37a2.58,2.58,0,0,0,.48,0c.1,0,.18,0,.18.09s-.11.12-.28.12c-.49,0-1,0-1.22,0l-1.15,0c-.11,0-.21,0-.21-.12s.07-.09.19-.09a1.79,1.79,0,0,0,.35,0c.32-.07.42-.52.47-.92Z"/><path class="cls-1" d="M192.67,108.18l-1.73,0c-.67,0-.95.08-1.13.34a1.35,1.35,0,0,0-.19.4c0,.09-.06.14-.13.14s-.11-.06-.11-.18a12.92,12.92,0,0,1,.25-1.34c0-.15.07-.22.14-.22a2.39,2.39,0,0,0,.5.14,10.44,10.44,0,0,0,1.16.06H196a5.94,5.94,0,0,0,.8-.06l.31-.06c.08,0,.1.07.1.25s0,1,0,1.34c0,.12,0,.19-.1.19s-.12-.06-.13-.23v-.13c0-.3-.34-.63-1.37-.65l-1.46,0v4.76c0,1.07,0,2,0,2.48,0,.33.11.58.46.63a5.47,5.47,0,0,0,.59,0c.13,0,.18,0,.18.1s-.09.11-.22.11c-.76,0-1.49,0-1.82,0l-1.46,0c-.15,0-.23,0-.23-.11s.05-.1.18-.1a2.12,2.12,0,0,0,.42,0c.23,0,.3-.3.34-.64s.06-1.4.06-2.47Z"/><path class="cls-1" d="M201.44,110.9c0-1.77,0-2.09,0-2.46s-.11-.58-.5-.66a1.87,1.87,0,0,0-.45,0c-.13,0-.2,0-.2-.1s.09-.11.26-.11l.94,0,.73,0h2.9l.5-.07a1.67,1.67,0,0,1,.18,0c.06,0,.07,0,.07.11s-.05.22-.09.75c0,.12,0,.63-.06.76s0,.13-.11.13-.11-.06-.11-.16a1.22,1.22,0,0,0-.07-.42c-.08-.21-.19-.35-.77-.42-.2,0-1.42,0-1.65,0-.06,0-.08,0-.08.11v2.94c0,.08,0,.13.08.13.25,0,1.59,0,1.86,0s.45,0,.55-.17.13-.15.19-.15.08,0,.08.09,0,.26-.09.85c0,.23,0,.69,0,.78s0,.22-.1.22-.11,0-.11-.11a2.37,2.37,0,0,0-.05-.42c0-.23-.22-.4-.65-.45-.22,0-1.36,0-1.64,0-.06,0-.07,0-.07.11v.92c0,.39,0,1.46,0,1.8,0,.8.21,1,1.39,1a2.92,2.92,0,0,0,1.09-.14c.3-.14.44-.38.52-.86,0-.12,0-.17.13-.17s.09.09.09.21A8.93,8.93,0,0,1,206,116c-.08.3-.18.3-.62.3-.87,0-1.51,0-2,0l-1.21,0h-.66l-.8,0c-.15,0-.23,0-.23-.11s.05-.1.18-.1a2.12,2.12,0,0,0,.42,0c.23,0,.29-.3.34-.64s.06-1.4.06-2.47Z"/><path class="cls-1" d="M211.49,114.73c0,.9.18,1.2.41,1.28a1.84,1.84,0,0,0,.6.08c.13,0,.2,0,.2.1s-.1.11-.27.11c-.75,0-1.21,0-1.44,0s-.64,0-1.25,0c-.15,0-.25,0-.25-.11s.07-.1.18-.1a2.35,2.35,0,0,0,.52,0c.31-.1.35-.43.36-1.44l.11-6.87c0-.23,0-.39.15-.39s.23.15.43.36,1.9,2,3.59,3.72c.79.79,2.36,2.46,2.56,2.64h.05l-.11-5.2c0-.71-.12-.93-.4-1a1.85,1.85,0,0,0-.61-.07c-.14,0-.19,0-.19-.1s.13-.11.3-.11c.61,0,1.16,0,1.41,0s.57,0,1.14,0c.15,0,.26,0,.26.11s-.07.1-.21.1a1,1,0,0,0-.34,0c-.33.09-.42.33-.43,1l-.13,7.32c0,.26,0,.36-.15.36s-.27-.13-.4-.25c-.73-.7-2.21-2.22-3.42-3.41s-2.55-2.71-2.76-2.93h0Z"/><path class="cls-1" d="M223.91,110.9c0-1.77,0-2.09,0-2.46s-.11-.58-.5-.66a1.87,1.87,0,0,0-.45,0c-.13,0-.2,0-.2-.1s.08-.11.26-.11l.94,0,.73,0h2.9l.5-.07a1.67,1.67,0,0,1,.18,0c.06,0,.07,0,.07.11s-.05.22-.09.75c0,.12,0,.63-.06.76s0,.13-.11.13-.11-.06-.11-.16a1.22,1.22,0,0,0-.07-.42c-.08-.21-.19-.35-.77-.42-.2,0-1.42,0-1.65,0-.06,0-.08,0-.08.11v2.94c0,.08,0,.13.08.13.25,0,1.59,0,1.85,0s.46,0,.56-.17.13-.15.19-.15.08,0,.08.09,0,.26-.1.85c0,.23,0,.69,0,.78s0,.22-.11.22-.1,0-.1-.11a2.37,2.37,0,0,0-.05-.42c0-.23-.22-.4-.65-.45-.22,0-1.37,0-1.64,0-.06,0-.07,0-.07.11v.92c0,.39,0,1.46,0,1.8,0,.8.21,1,1.39,1a2.92,2.92,0,0,0,1.09-.14c.3-.14.44-.38.52-.86,0-.12,0-.17.13-.17s.09.09.09.21a8.93,8.93,0,0,1-.15,1.29c-.08.3-.18.3-.63.3-.87,0-1.5,0-2,0l-1.21,0h-.66l-.8,0c-.15,0-.23,0-.23-.11s0-.1.18-.1a2.12,2.12,0,0,0,.42,0c.23,0,.29-.3.34-.64s.06-1.4.06-2.47Z"/><path class="cls-1" d="M234,114.73c0,.9.18,1.2.41,1.28a1.84,1.84,0,0,0,.6.08c.13,0,.2,0,.2.1s-.11.11-.27.11c-.75,0-1.22,0-1.44,0s-.65,0-1.25,0c-.15,0-.25,0-.25-.11s.07-.1.18-.1a2.35,2.35,0,0,0,.52,0c.3-.1.35-.43.36-1.44l.11-6.87c0-.23,0-.39.15-.39s.23.15.43.36,1.9,2,3.59,3.72c.79.79,2.36,2.46,2.56,2.64h0l-.11-5.2c0-.71-.12-.93-.4-1a1.85,1.85,0,0,0-.61-.07c-.14,0-.19,0-.19-.1s.13-.11.3-.11c.61,0,1.16,0,1.41,0s.57,0,1.13,0c.16,0,.27,0,.27.11s-.07.1-.21.1a1.14,1.14,0,0,0-.35,0c-.32.09-.41.33-.42,1l-.13,7.32c0,.26,0,.36-.15.36s-.27-.13-.4-.25c-.73-.7-2.21-2.22-3.42-3.41s-2.55-2.71-2.76-2.93h0Z"/><path class="cls-1" d="M245.74,116.16c-.19-.08-.22-.14-.22-.39,0-.64,0-1.33,0-1.52s.05-.3.14-.3.12.1.12.2a2.91,2.91,0,0,0,.1.59,1.6,1.6,0,0,0,1.66,1.17,1.41,1.41,0,0,0,1.56-1.32c0-.57-.18-1.11-1.14-1.86l-.53-.42c-1.28-1-1.72-1.81-1.72-2.75,0-1.27,1.07-2.19,2.68-2.19a5.62,5.62,0,0,1,1.54.2c.11,0,.16.06.16.14s0,.48,0,1.39c0,.25,0,.35-.13.35s-.12-.07-.12-.21a1.34,1.34,0,0,0-.3-.77,1.46,1.46,0,0,0-1.26-.57,1.22,1.22,0,0,0-1.38,1.2c0,.53.26.94,1.23,1.67l.32.24c1.41,1.06,1.9,1.86,1.9,3a2.34,2.34,0,0,1-1.09,2,3.36,3.36,0,0,1-1.84.48,4,4,0,0,1-1.69-.31"/></svg>